<?xml version="1.0" encoding="iso-8859-1"?>
<!-- Generator: Adobe Illustrator 19.0.0, SVG Export Plug-In . SVG Version: 6.00 Build 0)  -->
<svg version="1.1" id="Capa_1" xmlns="http://www.w3.org/2000/svg" xmlns:xlink="http://www.w3.org/1999/xlink" x="0px" y="0px"
	 viewBox="0 0 512 512" style="enable-background:new 0 0 512 512;" xml:space="preserve">
<path style="fill:#F44336;" d="M319.552,108.32c-1.984-8.544-10.464-13.856-19.2-11.904c-7.392,1.76-12.032,8.32-12.032,15.584
	h-64.64c0-7.264-4.672-13.824-12-15.584c-8.608-1.92-17.248,3.328-19.264,11.904l-64,272c-1.28,5.376,0.352,11.072,4.256,14.976
	l112,112C247.808,510.432,251.904,512,256,512c4.096,0,8.192-1.568,11.328-4.672l112-112c3.904-3.904,5.536-9.6,4.256-14.976
	L319.552,108.32z"/>
<path style="fill:#D32F2F;" d="M348.96,6.656C345.984,2.464,341.152,0,336,0H176c-5.152,0-9.984,2.496-12.992,6.656
	c-3.008,4.16-3.808,9.536-2.176,14.432l32,96C195.008,123.584,201.12,128,208,128h96c6.88,0,12.992-4.416,15.2-10.944l32-96
	C352.8,16.192,352,10.816,348.96,6.656z"/>
<g>
</g>
<g>
</g>
<g>
</g>
<g>
</g>
<g>
</g>
<g>
</g>
<g>
</g>
<g>
</g>
<g>
</g>
<g>
</g>
<g>
</g>
<g>
</g>
<g>
</g>
<g>
</g>
<g>
</g>
</svg>
